# ProBuilder 4.5.2
# https://unity3d.com/unity/features/worldbuilding/probuilder
# 8/22/2021 4:22:33 PM

mtllib ./waterglass.mtl
o waterglass

g Water Glass BB
v -0.9053634 0.1402604 -0.3769388
v -0.910885 0.02769436 -0.3640508
v -0.9081757 0.1402604 -0.3629232
v -0.908298 0.02769436 -0.3769437
v -0.9081288 0.1402604 -0.3909636
v -0.9108419 0.02769436 -0.3898451
v -0.9160507 0.1402604 -0.4028626
v -0.9181293 0.02769436 -0.400791
v -0.9279232 0.1402604 -0.4108243
v -0.9290507 0.02769436 -0.408115
v -0.9419388 0.1402604 -0.4136365
v -0.9419436 0.02769434 -0.4107019
v -0.9559636 0.1402604 -0.4108712
v -0.9548451 0.02769434 -0.4081581
v -0.9678626 0.1402604 -0.4029492
v -0.965791 0.02769434 -0.4008707
v -0.9758243 0.1402604 -0.3910768
v -0.9731149 0.02769434 -0.3899492
v -0.9786365 0.1402604 -0.3770612
v -0.9757019 0.02769434 -0.3770563
v -0.9758711 0.1402604 -0.3630364
v -0.9731581 0.02769434 -0.3641549
v -0.9679492 0.1402604 -0.3511374
v -0.9658707 0.02769434 -0.353209
v -0.9560767 0.1402604 -0.3431757
v -0.9549492 0.02769434 -0.345885
v -0.9420612 0.1402604 -0.3403635
v -0.9420563 0.02769434 -0.3432981
v -0.9280364 0.1402604 -0.3431288
v -0.9291549 0.02769436 -0.3458419
v -0.9161373 0.1402604 -0.3510508
v -0.918209 0.02769436 -0.3531293
v -0.9641589 0.03869687 -0.354915
v -0.9420522 0.03869687 -0.3457148
v -0.9540206 0.03869687 -0.3481163
v -0.9732851 0.03869687 -0.3770523
v -0.9709237 0.03869687 -0.365076
v -0.9419477 0.03869687 -0.4082852
v -0.964085 0.03869687 -0.399159
v -0.9708837 0.03869687 -0.3890207
v -0.953924 0.03869687 -0.4059238
v -0.9107148 0.03869687 -0.3769477
v -0.919915 0.03869687 -0.3548411
v -0.930076 0.03869687 -0.3480762
v -0.9131162 0.03869687 -0.3649794
v -0.9198411 0.03869687 -0.399085
v -0.9130762 0.03869687 -0.388924
v -0.9299793 0.03869687 -0.4058837
v -0.9148283 0.0237396 -0.3656919
v -0.9307827 0.0237396 -0.3497907
v -0.9212241 0.0237396 -0.3561545
v -0.9147906 0.0237396 -0.3882172
v -0.9125692 0.0237396 -0.3769508
v -0.9532172 0.02373958 -0.4042093
v -0.9306918 0.0237396 -0.4041717
v -0.9211545 0.0237396 -0.3977759
v -0.9419508 0.02373958 -0.4064308
v -0.9692093 0.02373958 -0.3657828
v -0.9533081 0.02373958 -0.3498283
v -0.9420491 0.02373958 -0.3475692
v -0.9628454 0.02373958 -0.3562241
v -0.9691716 0.02373958 -0.3883081
v -0.9714308 0.02373958 -0.3770492
v -0.9627759 0.02373958 -0.3978455
v -0.9420568 0.1402604 -0.3429907
v -0.9550673 0.1402604 -0.3456012
v -0.9290377 0.1402604 -0.3455577
v -0.9660884 0.1402604 -0.352992
v -0.9179919 0.1402604 -0.3529116
v -0.9734423 0.1402604 -0.3640377
v -0.9106012 0.1402604 -0.3639327
v -0.9760093 0.1402604 -0.3770569
v -0.9079906 0.1402604 -0.3769431
v -0.9733987 0.1402604 -0.3900673
v -0.9105577 0.1402604 -0.3899623
v -0.966008 0.1402604 -0.4010884
v -0.9179115 0.1402604 -0.401008
v -0.9549623 0.1402604 -0.4084423
v -0.9289327 0.1402604 -0.4083988
v -0.9419431 0.1402604 -0.4110093

vt 3.794549E-08 0
vt -0.06250012 1
vt -0.06250012 0
vt 3.794549E-08 1
vt 0.06250006 0
vt 0.06250006 1
vt 0.125 0
vt 0.125 1
vt 0.1875 0
vt 0.1875 1
vt 0.25 0
vt 0.25 1
vt 0.3125 0
vt 0.3125 1
vt 0.375 0
vt 0.375 1
vt 0.4375 0
vt 0.4375 1
vt 0.5 0
vt 0.5 1
vt 0.5625 0
vt 0.5625 1
vt 0.625 0
vt 0.625 1
vt 0.6874999 0
vt 0.6874999 1
vt 0.75 0
vt 0.75 1
vt 0.8124999 0
vt 0.8124999 1
vt 0.8749999 0
vt 0.8749999 1
vt 0.9374999 0
vt 0.9374999 1
vt 0.8535534 0.8535534
vt 0.5 1
vt 0.6913417 0.9619397
vt 1 0.5
vt 0.9619397 0.6913417
vt 0.8535534 0.1464466
vt 0.9619397 0.3086583
vt 0.6913418 0.03806028
vt 2.980232E-08 0.5
vt 0.1464467 0.8535534
vt 0.3086585 0.9619398
vt 0.03806031 0.6913418
vt 0.1464467 0.1464465
vt 0.03806028 0.3086582
vt 0.3086584 0.03806019

vn 0.7321395 -0.02667581 0.001223927
vn 0.6759403 -0.02667578 0.2813086
vn 0.6768771 -0.02667579 -0.279047
vn 0.5185661 -0.02667581 -0.5168356
vn 0.2813083 -0.0266758 -0.6759405
vn 0.001223694 -0.02667584 -0.7321395
vn -0.279047 -0.02667583 -0.6768771
vn -0.5168355 -0.02667583 -0.5185663
vn -0.6759403 -0.02667583 -0.2813085
vn -0.7321395 -0.02667587 -0.001223838
vn -0.6768771 -0.02667584 0.279047
vn -0.5185663 -0.02667583 0.5168355
vn -0.2813085 -0.02667582 0.6759403
vn -0.001223942 -0.02667584 0.7321395
vn 0.2790467 -0.02667582 0.6768772
vn 0.5168353 -0.02667581 0.5185664
vn -3.785179E-08 0.8659476 -6.318288E-11
vn 3.785179E-08 -0.8659476 6.318288E-11
vn 0.001223975 0.02744472 -0.7321193
vn 0.2813006 0.02744475 -0.6759216
vn 0.5185519 0.02744478 -0.516821
vn -0.2790389 0.02744471 -0.6768585
vn 0.6768584 0.0274448 -0.2790391
vn -0.516821 0.0274447 -0.518552
vn 0.7321193 0.02744478 0.001223826
vn -0.6759216 0.02744468 -0.2813007
vn 0.6759216 0.02744479 0.2813006
vn -0.7321193 0.02744466 -0.001223893
vn 0.5168211 0.02744478 0.5185519
vn -0.6768583 0.02744468 0.2790392
vn 0.2790392 0.02744476 0.6768583
vn -0.5185518 0.02744472 0.5168211
vn -0.001223599 0.02744472 0.7321193
vn -0.2813004 0.02744474 0.6759217
vn -0.1735392 -0.6817353 0.4169878
vn -0.0007547819 -0.6817353 0.451657
vn 0.1721442 -0.6817355 0.4175654
vn -0.3199037 -0.6817352 0.3188359
vn 0.3188355 -0.6817356 0.3199035
vn -0.4175656 -0.6817353 0.1721441
vn 0.4169874 -0.6817356 0.1735391
vn -0.451657 -0.6817353 -0.0007550069
vn 0.4516566 -0.6817358 0.0007550638
vn -0.4169877 -0.6817353 -0.1735392
vn 0.4175652 -0.6817357 -0.1721439
vn -0.3188359 -0.6817352 -0.3199037
vn 0.3199033 -0.6817356 -0.3188356
vn -0.1721441 -0.6817353 -0.4175656
vn 0.1735392 -0.6817356 -0.4169874
vn 0.0007553418 -0.6817353 -0.451657

usemtl glass
f 35/37/17 34/36/17 33/35/17
f 41/42/17 39/40/17 38/19/17
f 44/45/17 43/44/17 34/36/17
f 47/48/17 46/47/17 42/43/17
f 51/44/18 50/45/18 49/46/18
f 57/19/18 55/49/18 54/42/18
f 60/36/18 59/37/18 50/45/18
f 63/38/18 62/41/18 58/39/18
f 1/1/1 3/3/2 2/2/2
f 2/2/2 4/4/1 1/1/1
f 5/5/3 1/1/1 4/4/1
f 4/4/1 6/6/3 5/5/3
f 7/7/4 5/5/3 6/6/3
f 6/6/3 8/8/4 7/7/4
f 9/9/5 7/7/4 8/8/4
f 8/8/4 10/10/5 9/9/5
f 11/11/6 9/9/5 10/10/5
f 10/10/5 12/12/6 11/11/6
f 13/13/7 11/11/6 12/12/6
f 12/12/6 14/14/7 13/13/7
f 15/15/8 13/13/7 14/14/7
f 14/14/7 16/16/8 15/15/8
f 17/17/9 15/15/8 16/16/8
f 16/16/8 18/18/9 17/17/9
f 19/19/10 17/17/9 18/18/9
f 18/18/9 20/20/10 19/19/10
f 21/21/11 19/19/10 20/20/10
f 20/20/10 22/22/11 21/21/11
f 23/23/12 21/21/11 22/22/11
f 22/22/11 24/24/12 23/23/12
f 25/25/13 23/23/12 24/24/12
f 24/24/12 26/26/13 25/25/13
f 27/27/14 25/25/13 26/26/13
f 26/26/13 28/28/14 27/27/14
f 29/29/15 27/27/14 28/28/14
f 28/28/14 30/30/15 29/29/15
f 31/31/16 29/29/15 30/30/15
f 30/30/15 32/32/16 31/31/16
f 3/33/2 31/31/16 32/32/16
f 32/32/16 2/34/2 3/33/2
f 33/35/17 34/36/17 36/38/17
f 36/38/17 37/39/17 33/35/17
f 38/19/17 36/38/17 34/36/17
f 34/36/17 42/43/17 38/19/17
f 40/41/17 36/38/17 38/19/17
f 38/19/17 39/40/17 40/41/17
f 45/46/17 42/43/17 34/36/17
f 34/36/17 43/44/17 45/46/17
f 48/49/17 38/19/17 42/43/17
f 42/43/17 46/47/17 48/49/17
f 49/46/18 50/45/18 52/48/18
f 52/48/18 53/43/18 49/46/18
f 54/42/18 52/48/18 50/45/18
f 50/45/18 58/39/18 54/42/18
f 56/47/18 52/48/18 54/42/18
f 54/42/18 55/49/18 56/47/18
f 61/35/18 58/39/18 50/45/18
f 50/45/18 59/37/18 61/35/18
f 64/40/18 54/42/18 58/39/18
f 58/39/18 62/41/18 64/40/18
f 65/36/17 66/37/17 25/37/17
f 25/37/17 27/36/17 65/36/17
f 23/35/17 25/37/17 66/37/17
f 66/37/17 68/35/17 23/35/17
f 67/45/17 65/36/17 27/36/17
f 27/36/17 29/45/17 67/45/17
f 21/39/17 23/35/17 68/35/17
f 68/35/17 70/39/17 21/39/17
f 69/44/17 67/45/17 29/45/17
f 29/45/17 31/44/17 69/44/17
f 19/38/17 21/39/17 70/39/17
f 70/39/17 72/38/17 19/38/17
f 71/46/17 69/44/17 31/44/17
f 31/44/17 3/46/17 71/46/17
f 17/41/17 19/38/17 72/38/17
f 72/38/17 74/41/17 17/41/17
f 73/43/17 71/46/17 3/46/17
f 3/46/17 1/43/17 73/43/17
f 15/40/17 17/41/17 74/41/17
f 74/41/17 76/40/17 15/40/17
f 75/48/17 73/43/17 1/43/17
f 1/43/17 5/48/17 75/48/17
f 13/42/17 15/40/17 76/40/17
f 76/40/17 78/42/17 13/42/17
f 77/47/17 75/48/17 5/48/17
f 5/48/17 7/47/17 77/47/17
f 11/19/17 13/42/17 78/42/17
f 78/42/17 80/19/17 11/19/17
f 79/49/17 77/47/17 7/47/17
f 7/47/17 9/49/17 79/49/17
f 9/49/17 11/19/17 80/19/17
f 80/19/17 79/49/17 9/49/17
f 34/36/19 35/37/20 66/37/20
f 66/37/20 65/36/19 34/36/19
f 68/35/21 66/37/20 35/37/20
f 35/37/20 33/35/21 68/35/21
f 44/45/22 34/36/19 65/36/19
f 65/36/19 67/45/22 44/45/22
f 70/39/23 68/35/21 33/35/21
f 33/35/21 37/39/23 70/39/23
f 43/44/24 44/45/22 67/45/22
f 67/45/22 69/44/24 43/44/24
f 72/38/25 70/39/23 37/39/23
f 37/39/23 36/38/25 72/38/25
f 45/46/26 43/44/24 69/44/24
f 69/44/24 71/46/26 45/46/26
f 74/41/27 72/38/25 36/38/25
f 36/38/25 40/41/27 74/41/27
f 42/43/28 45/46/26 71/46/26
f 71/46/26 73/43/28 42/43/28
f 76/40/29 74/41/27 40/41/27
f 40/41/27 39/40/29 76/40/29
f 47/48/30 42/43/28 73/43/28
f 73/43/28 75/48/30 47/48/30
f 78/42/31 76/40/29 39/40/29
f 39/40/29 41/42/31 78/42/31
f 46/47/32 47/48/30 75/48/30
f 75/48/30 77/47/32 46/47/32
f 80/19/33 78/42/31 41/42/31
f 41/42/31 38/19/33 80/19/33
f 48/49/34 46/47/32 77/47/32
f 77/47/32 79/49/34 48/49/34
f 79/49/34 80/19/33 38/19/33
f 38/19/33 48/49/34 79/49/34
f 59/37/35 60/36/36 28/36/36
f 28/36/36 26/37/35 59/37/35
f 30/45/37 28/36/36 60/36/36
f 60/36/36 50/45/37 30/45/37
f 61/35/38 59/37/35 26/37/35
f 26/37/35 24/35/38 61/35/38
f 32/44/39 30/45/37 50/45/37
f 50/45/37 51/44/39 32/44/39
f 58/39/40 61/35/38 24/35/38
f 24/35/38 22/39/40 58/39/40
f 2/46/41 32/44/39 51/44/39
f 51/44/39 49/46/41 2/46/41
f 63/38/42 58/39/40 22/39/40
f 22/39/40 20/38/42 63/38/42
f 4/43/43 2/46/41 49/46/41
f 49/46/41 53/43/43 4/43/43
f 62/41/44 63/38/42 20/38/42
f 20/38/42 18/41/44 62/41/44
f 6/48/45 4/43/43 53/43/43
f 53/43/43 52/48/45 6/48/45
f 64/40/46 62/41/44 18/41/44
f 18/41/44 16/40/46 64/40/46
f 8/47/47 6/48/45 52/48/45
f 52/48/45 56/47/47 8/47/47
f 54/42/48 64/40/46 16/40/46
f 16/40/46 14/42/48 54/42/48
f 10/49/49 8/47/47 56/47/47
f 56/47/47 55/49/49 10/49/49
f 57/19/50 54/42/48 14/42/48
f 14/42/48 12/19/50 57/19/50
f 12/19/50 10/49/49 55/49/49
f 55/49/49 57/19/50 12/19/50

